<?xml version="1.0" encoding="UTF-8" standalone="no"?>
<svg
   xmlns:dc="http://purl.org/dc/elements/1.1/"
   xmlns:cc="http://creativecommons.org/ns#"
   xmlns:rdf="http://www.w3.org/1999/02/22-rdf-syntax-ns#"
   xmlns:svg="http://www.w3.org/2000/svg"
   xmlns="http://www.w3.org/2000/svg"
   viewBox="0 0 112.16973 28.897066"
   height="28.897066"
   width="112.16973"
   xml:space="preserve"
   id="svg2"
   version="1.1"><metadata
     id="metadata8"><rdf:RDF><cc:Work
         rdf:about=""><dc:format>image/svg+xml</dc:format><dc:type
           rdf:resource="http://purl.org/dc/dcmitype/StillImage" /></cc:Work></rdf:RDF></metadata><defs
     id="defs6"><clipPath
       id="clipPath18"
       clipPathUnits="userSpaceOnUse"><path
         id="path16"
         d="M 0,21.673 H 84.127 V 0 H 0 Z" /></clipPath></defs><g
     transform="matrix(1.3333333,0,0,-1.3333333,0,28.897067)"
     id="g10"><g
       id="g12"><g
         clip-path="url(#clipPath18)"
         id="g14"><g
           transform="translate(3.9305,10.6758)"
           id="g20"><path
             id="path22"
             style="fill:#21405d;fill-opacity:1;fill-rule:nonzero;stroke:none"
             d="M 0,0 C 0.244,-0.001 0.478,0.003 0.7,0.014 0.923,0.023 1.101,0.041 1.233,0.062 L 1.241,1.946 C 1.142,1.968 0.991,1.99 0.792,2.014 0.591,2.037 0.408,2.048 0.241,2.049 0.008,2.05 -0.212,2.037 -0.417,2.011 -0.623,1.983 -0.804,1.931 -0.96,1.854 -1.115,1.777 -1.239,1.672 -1.328,1.538 -1.417,1.405 -1.462,1.239 -1.462,1.039 -1.464,0.65 -1.335,0.379 -1.075,0.229 -0.813,0.078 -0.456,0.001 0,0 M -0.171,7.27 C 0.561,7.267 1.172,7.18 1.66,7.012 2.149,6.843 2.539,6.603 2.833,6.291 3.127,5.978 3.333,5.6 3.454,5.154 3.574,4.709 3.634,4.215 3.632,3.671 L 3.613,-1.498 C 3.255,-1.574 2.761,-1.665 2.127,-1.767 1.494,-1.87 0.727,-1.92 -0.174,-1.917 c -0.567,0.003 -1.081,0.055 -1.541,0.156 -0.462,0.102 -0.857,0.267 -1.19,0.497 -0.333,0.229 -0.587,0.527 -0.763,0.894 -0.177,0.368 -0.265,0.818 -0.262,1.352 0.001,0.51 0.106,0.944 0.312,1.299 0.208,0.354 0.485,0.637 0.83,0.847 0.344,0.209 0.739,0.361 1.184,0.454 0.446,0.092 0.907,0.138 1.385,0.136 C 0.104,3.717 0.39,3.702 0.64,3.673 0.889,3.645 1.092,3.607 1.247,3.563 L 1.248,3.796 C 1.25,4.218 1.123,4.558 0.869,4.814 0.614,5.071 0.17,5.201 -0.463,5.203 -0.886,5.205 -1.303,5.175 -1.714,5.116 -2.125,5.056 -2.452,4.875 -2.728,5.038 c -0.436,0.257 -0.363,1.825 -0.363,1.825 0.145,0.044 0.326,0.091 0.543,0.14 0.216,0.05 0.452,0.092 0.709,0.13 0.255,0.039 0.525,0.07 0.809,0.097 0.283,0.027 0.568,0.041 0.859,0.04" /></g><g
           transform="translate(14.5174,15.4693)"
           id="g24"><path
             id="path26"
             style="fill:#21405d;fill-opacity:1;fill-rule:nonzero;stroke:none"
             d="m 0,0 c -0.223,0.056 -0.483,0.116 -0.782,0.178 -0.3,0.062 -0.623,0.094 -0.967,0.096 -0.156,0 -0.342,-0.012 -0.558,-0.04 C -2.524,0.208 -2.688,0.177 -2.8,0.145 l -0.02,-5.373 c -0.003,-0.734 -0.6,-1.327 -1.334,-1.324 l -1.155,0.005 0.031,8.301 c 0.446,0.154 0.971,0.3 1.577,0.436 0.607,0.136 1.282,0.204 2.026,0.201 0.134,0 0.295,-0.009 0.485,-0.027 0.188,-0.017 0.377,-0.041 0.566,-0.069 0.189,-0.028 0.377,-0.063 0.566,-0.103 0.189,-0.038 0.35,-0.087 0.483,-0.143 z" /></g><g
           transform="translate(18.1848,10.6714)"
           id="g28"><path
             id="path30"
             style="fill:#21405d;fill-opacity:1;fill-rule:nonzero;stroke:none"
             d="M 0,0 C 0.455,-0.001 0.777,0.041 0.966,0.129 1.157,0.218 1.251,0.39 1.252,0.645 1.253,0.846 1.131,1.021 0.888,1.172 0.644,1.323 0.271,1.494 -0.227,1.685 -0.616,1.83 -0.968,1.982 -1.285,2.139 -1.6,2.295 -1.87,2.483 -2.091,2.7 c -0.222,0.217 -0.393,0.477 -0.514,0.778 -0.121,0.3 -0.181,0.661 -0.179,1.083 0.003,0.823 0.311,1.472 0.925,1.947 0.613,0.475 1.452,0.712 2.52,0.708 C 1.194,7.214 1.706,7.165 2.193,7.068 2.682,6.971 3.071,6.868 3.359,6.756 3.359,6.756 3.309,5.319 2.875,5.08 2.606,4.932 2.316,5.015 1.977,5.094 1.64,5.172 1.259,5.213 0.836,5.215 0.058,5.218 -0.331,5.002 -0.333,4.569 c 0,-0.1 0.016,-0.19 0.048,-0.267 0.034,-0.077 0.1,-0.154 0.2,-0.226 C 0.015,4.003 0.151,3.924 0.323,3.84 0.495,3.755 0.714,3.662 0.979,3.561 1.524,3.356 1.973,3.156 2.329,2.958 2.683,2.762 2.963,2.549 3.167,2.32 3.373,2.093 3.515,1.84 3.599,1.562 3.68,1.285 3.721,0.963 3.72,0.597 3.716,-0.268 3.388,-0.922 2.737,-1.363 2.085,-1.803 1.165,-2.021 -0.025,-2.017 c -0.778,0.003 -1.425,0.072 -1.941,0.207 -0.516,0.136 -0.874,0.248 -1.075,0.337 0,0 0.002,1.469 0.456,1.712 0.401,0.216 0.824,0.004 1.268,-0.093 C -0.874,0.051 -0.434,0.002 0,0" /></g><g
           transform="translate(36.6311,13.4678)"
           id="g32"><path
             id="path34"
             style="fill:#21405d;fill-opacity:1;fill-rule:nonzero;stroke:none"
             d="M 0,0 C 0.003,0.8 -0.097,1.368 -0.301,1.703 -0.506,2.036 -0.858,2.204 -1.358,2.206 -1.514,2.207 -1.675,2.199 -1.842,2.183 -2.008,2.167 -2.169,2.148 -2.325,2.126 l -0.026,-6.768 -0.872,0.004 c -0.89,0.003 -1.61,0.728 -1.606,1.618 l 0.026,6.856 c 0.212,0.055 0.459,0.112 0.743,0.172 0.284,0.06 0.583,0.115 0.901,0.163 0.317,0.05 0.642,0.088 0.975,0.114 0.333,0.027 0.662,0.039 0.983,0.038 C -0.567,4.32 -0.053,4.237 0.341,4.076 0.735,3.913 1.059,3.72 1.314,3.497 1.671,3.75 2.08,3.95 2.542,4.091 3.003,4.235 3.428,4.305 3.818,4.304 4.518,4.301 5.093,4.201 5.542,4.005 5.992,3.809 6.349,3.533 6.614,3.177 6.879,2.819 7.061,2.396 7.16,1.907 7.258,1.417 7.306,0.873 7.304,0.273 L 7.285,-4.678 6.222,-4.674 c -0.785,0.003 -1.419,0.641 -1.415,1.426 l 0.012,3.23 C 4.822,0.782 4.721,1.35 4.516,1.684 4.312,2.017 3.96,2.186 3.459,2.188 3.327,2.188 3.139,2.156 2.9,2.09 2.661,2.023 2.464,1.941 2.308,1.842 2.384,1.586 2.434,1.316 2.456,1.033 2.476,0.749 2.486,0.446 2.484,0.125 L 2.466,-4.66 1.875,-4.658 c -1.045,0.004 -1.89,0.855 -1.886,1.901 z" /></g><g
           transform="translate(51.2669,13.1626)"
           id="g36"><path
             id="path38"
             style="fill:#21405d;fill-opacity:1;fill-rule:nonzero;stroke:none"
             d="M 0,0 C 0.003,0.766 -0.148,1.371 -0.452,1.81 -0.755,2.25 -1.191,2.472 -1.757,2.474 -2.324,2.477 -2.765,2.258 -3.077,1.82 -3.391,1.383 -3.547,0.78 -3.55,0.013 c -0.003,-0.766 0.149,-1.376 0.459,-1.827 0.309,-0.451 0.748,-0.678 1.315,-0.68 0.566,-0.002 1.004,0.222 1.311,0.67 C -0.159,-1.375 -0.003,-0.767 0,0 M 2.534,-0.01 C 2.532,-0.699 2.429,-1.33 2.227,-1.901 2.024,-2.473 1.733,-2.96 1.354,-3.364 0.975,-3.769 0.521,-4.08 -0.008,-4.301 c -0.529,-0.22 -1.121,-0.329 -1.776,-0.327 -0.646,0.003 -1.232,0.116 -1.758,0.341 -0.527,0.224 -0.979,0.539 -1.354,0.947 -0.377,0.406 -0.67,0.896 -0.88,1.469 -0.208,0.574 -0.311,1.205 -0.308,1.894 0.002,0.689 0.113,1.317 0.332,1.883 0.218,0.565 0.521,1.048 0.905,1.447 0.386,0.398 0.843,0.708 1.371,0.928 0.529,0.22 1.104,0.33 1.727,0.327 0.632,-0.002 1.212,-0.116 1.741,-0.34 C 0.519,4.043 0.971,3.731 1.346,3.329 1.723,2.928 2.016,2.442 2.224,1.876 2.434,1.308 2.537,0.679 2.534,-0.01" /></g><g
           transform="translate(58.6194,8.5664)"
           id="g40"><path
             id="path42"
             style="fill:#21405d;fill-opacity:1;fill-rule:nonzero;stroke:none"
             d="m 0,0 c -0.724,0.014 -1.31,0.095 -1.759,0.24 -0.45,0.147 -0.805,0.35 -1.064,0.614 -0.261,0.261 -0.438,0.579 -0.53,0.951 -0.093,0.372 -0.139,0.793 -0.138,1.259 l 0.028,7.137 c 0.005,1.45 1.063,2.681 2.495,2.905 L -1.005,3.554 c 0,-0.222 0.015,-0.422 0.048,-0.599 C -0.923,2.777 -0.86,2.626 -0.767,2.503 -0.673,2.381 -0.538,2.28 -0.359,2.202 -0.182,2.124 0.17,2.051 0.354,1.814 0.674,1.403 0,0 0,0" /></g><g
           transform="translate(74.7893,8.9717)"
           id="g44"><path
             id="path46"
             style="fill:#21405d;fill-opacity:1;fill-rule:nonzero;stroke:none"
             d="m 0,0 c -0.422,-0.121 -0.967,-0.232 -1.635,-0.336 -0.666,-0.101 -1.366,-0.152 -2.1,-0.149 -0.745,0.003 -1.365,0.104 -1.858,0.307 -0.494,0.201 -0.885,0.484 -1.171,0.845 -0.289,0.362 -0.492,0.794 -0.612,1.295 -0.121,0.5 -0.18,1.051 -0.178,1.651 l 0.019,4.884 0.983,-0.004 C -5.723,8.49 -5.053,7.815 -5.057,6.986 L -5.068,3.903 C -5.071,3.103 -4.969,2.524 -4.759,2.168 -4.549,1.812 -4.154,1.633 -3.577,1.631 -3.4,1.63 -3.21,1.637 -3.011,1.654 -2.81,1.67 -2.632,1.688 -2.476,1.71 L -2.45,8.478 -1.509,8.474 C -0.658,8.471 0.03,7.778 0.026,6.926 Z" /></g><g
           transform="translate(76.5721,17.1333)"
           id="g48"><path
             id="path50"
             style="fill:#21405d;fill-opacity:1;fill-rule:nonzero;stroke:none"
             d="M 0,0 C 0.422,0.121 0.968,0.232 1.635,0.335 2.303,0.439 3.003,0.489 3.737,0.486 4.48,0.483 5.1,0.383 5.594,0.187 6.087,-0.01 6.478,-0.285 6.766,-0.642 7.053,-1 7.258,-1.422 7.378,-1.911 7.499,-2.401 7.558,-2.946 7.555,-3.545 L 7.536,-8.497 6.429,-8.493 C 5.668,-8.49 5.055,-7.871 5.058,-7.111 l 0.012,3.274 c 0.003,0.8 -0.101,1.368 -0.31,1.702 C 4.55,-1.801 4.156,-1.633 3.578,-1.631 3.4,-1.63 3.212,-1.638 3.011,-1.653 2.812,-1.668 2.634,-1.688 2.478,-1.709 l -0.02,-5.175 c -0.003,-0.88 -0.72,-1.591 -1.6,-1.588 l -0.89,0.004 z" /></g><g
           transform="translate(3.9378,3.2959)"
           id="g52"><path
             id="path54"
             style="fill:#5bc368;fill-opacity:1;fill-rule:nonzero;stroke:none"
             d="m 0,0 c -0.002,-0.425 -0.138,-0.749 -0.407,-0.969 -0.269,-0.219 -0.575,-0.33 -0.915,-0.329 -0.339,0.001 -0.643,0.114 -0.911,0.337 -0.268,0.222 -0.401,0.546 -0.399,0.971 0.001,0.424 0.136,0.747 0.406,0.967 0.27,0.222 0.576,0.331 0.914,0.33 C -0.972,1.305 -0.667,1.193 -0.4,0.97 -0.132,0.748 0.001,0.424 0,0" /></g><g
           transform="translate(6.0545,3.0747)"
           id="g56"><path
             id="path58"
             style="fill:#5bc368;fill-opacity:1;fill-rule:nonzero;stroke:none"
             d="M 0,0 C 0.001,0.417 0.071,0.811 0.208,1.181 0.345,1.55 0.542,1.872 0.8,2.146 1.057,2.419 1.369,2.637 1.736,2.796 2.104,2.956 2.522,3.036 2.991,3.034 3.298,3.033 3.58,3.004 3.837,2.947 4.093,2.892 4.342,2.812 4.584,2.708 4.584,2.708 4.56,1.667 4.259,1.513 4.113,1.438 3.916,1.513 3.733,1.558 3.55,1.602 3.344,1.625 3.117,1.626 2.634,1.628 2.272,1.479 2.033,1.179 1.793,0.88 1.673,0.484 1.671,-0.006 1.669,-0.527 1.779,-0.93 2.002,-1.217 2.224,-1.503 2.614,-1.648 3.17,-1.65 c 0.198,-0.001 0.412,0.016 0.639,0.052 0.227,0.036 0.462,0.106 0.643,0.006 C 4.75,-1.756 4.661,-2.766 4.661,-2.766 4.471,-2.846 4.232,-2.915 3.947,-2.973 3.66,-3.03 3.345,-3.058 3,-3.057 2.473,-3.055 2.019,-2.975 1.638,-2.815 1.258,-2.657 0.945,-2.441 0.701,-2.168 0.456,-1.896 0.278,-1.576 0.166,-1.205 0.053,-0.834 -0.001,-0.433 0,0" /></g><g
           transform="translate(14.9041,3.0518)"
           id="g60"><path
             id="path62"
             style="fill:#5bc368;fill-opacity:1;fill-rule:nonzero;stroke:none"
             d="M 0,0 C 0.002,0.505 -0.098,0.904 -0.298,1.193 -0.498,1.484 -0.786,1.63 -1.159,1.632 -1.532,1.633 -1.823,1.489 -2.029,1.2 -2.236,0.912 -2.339,0.514 -2.341,0.009 c -0.002,-0.506 0.098,-0.908 0.303,-1.206 0.204,-0.297 0.493,-0.446 0.867,-0.448 0.373,-10e-4 0.662,0.146 0.864,0.442 C -0.104,-0.907 -0.002,-0.506 0,0 M 1.671,-0.006 C 1.669,-0.461 1.602,-0.877 1.469,-1.254 1.335,-1.631 1.143,-1.952 0.894,-2.219 0.643,-2.485 0.343,-2.691 -0.005,-2.836 c -0.349,-0.145 -0.739,-0.217 -1.171,-0.216 -0.426,0.002 -0.812,0.077 -1.16,0.225 -0.347,0.148 -0.645,0.356 -0.893,0.624 -0.249,0.268 -0.441,0.591 -0.58,0.969 -0.137,0.379 -0.205,0.795 -0.203,1.249 10e-4,0.455 0.074,0.869 0.219,1.242 0.144,0.372 0.344,0.691 0.597,0.954 0.254,0.263 0.555,0.467 0.904,0.612 0.349,0.145 0.728,0.218 1.139,0.216 C -0.736,3.037 -0.354,2.962 -0.005,2.814 0.342,2.667 0.64,2.46 0.888,2.195 1.137,1.931 1.33,1.61 1.467,1.237 1.605,0.862 1.673,0.448 1.671,-0.006" /></g><g
           transform="translate(20.6311,3.1944)"
           id="g64"><path
             id="path66"
             style="fill:#5bc368;fill-opacity:1;fill-rule:nonzero;stroke:none"
             d="m 0,0 c 0.002,0.528 -0.063,0.902 -0.199,1.123 -0.135,0.219 -0.367,0.33 -0.696,0.332 -0.103,0 -0.209,-0.005 -0.32,-0.016 C -1.324,1.429 -1.43,1.417 -1.533,1.402 l -0.017,-4.463 -0.663,0.003 c -0.539,0.002 -0.974,0.44 -0.972,0.978 l 0.018,4.61 c 0.14,0.036 0.303,0.074 0.49,0.113 0.187,0.04 0.385,0.076 0.594,0.108 0.209,0.032 0.424,0.058 0.643,0.074 0.22,0.018 0.437,0.027 0.648,0.026 C -0.374,2.849 -0.035,2.794 0.225,2.688 0.485,2.58 0.698,2.453 0.867,2.306 1.102,2.473 1.372,2.604 1.676,2.698 1.981,2.792 2.261,2.839 2.518,2.838 2.979,2.836 3.358,2.771 3.655,2.642 3.952,2.511 4.187,2.33 4.361,2.095 4.537,1.859 4.657,1.58 4.722,1.258 4.787,0.935 4.818,0.576 4.817,0.18 L 4.804,-3.085 4.141,-3.083 C 3.603,-3.081 3.168,-2.642 3.17,-2.104 l 0.008,2.092 C 3.18,0.516 3.113,0.89 2.978,1.11 2.844,1.33 2.612,1.441 2.282,1.442 2.194,1.443 2.07,1.422 1.913,1.378 1.755,1.334 1.625,1.28 1.522,1.214 1.572,1.046 1.605,0.868 1.62,0.681 1.633,0.494 1.639,0.294 1.639,0.083 L 1.626,-3.073 0.964,-3.07 c -0.539,0.002 -0.974,0.44 -0.972,0.978 z" /></g><g
           transform="translate(62.6385,10.4151)"
           id="g68"><path
             id="path70"
             style="fill:#21405d;fill-opacity:1;fill-rule:nonzero;stroke:none"
             d="M 0,0 C 0.455,-0.001 0.778,0.041 0.967,0.129 1.157,0.218 1.251,0.39 1.252,0.646 1.253,0.846 1.131,1.021 0.888,1.172 0.644,1.323 0.272,1.494 -0.227,1.685 -0.616,1.83 -0.968,1.982 -1.285,2.139 -1.6,2.295 -1.869,2.483 -2.091,2.7 c -0.222,0.217 -0.393,0.477 -0.514,0.778 -0.121,0.3 -0.181,0.661 -0.179,1.083 0.003,0.824 0.311,1.472 0.925,1.947 0.613,0.475 1.453,0.713 2.52,0.708 C 1.194,7.214 1.706,7.165 2.194,7.068 2.682,6.971 3.071,6.868 3.359,6.756 3.359,6.756 3.309,5.319 2.875,5.08 2.607,4.932 2.316,5.015 1.977,5.094 1.64,5.172 1.259,5.213 0.837,5.215 0.058,5.218 -0.331,5.002 -0.333,4.569 c 0,-0.1 0.016,-0.19 0.048,-0.267 0.034,-0.077 0.1,-0.154 0.201,-0.226 C 0.016,4.003 0.151,3.924 0.323,3.84 0.495,3.755 0.714,3.662 0.979,3.561 1.524,3.356 1.973,3.156 2.329,2.958 2.684,2.762 2.963,2.549 3.167,2.32 3.373,2.093 3.516,1.84 3.599,1.562 3.68,1.285 3.721,0.963 3.72,0.597 3.716,-0.268 3.388,-0.922 2.737,-1.363 2.085,-1.803 1.165,-2.021 -0.025,-2.017 c -0.777,0.003 -1.424,0.072 -1.941,0.207 -0.516,0.136 -0.874,0.248 -1.074,0.338 0,0 10e-4,1.468 0.455,1.712 0.401,0.215 0.824,0.003 1.269,-0.094 C -0.873,0.051 -0.434,0.002 0,0" /></g><g
           transform="translate(26.5052,10.5899)"
           id="g72"><path
             id="path74"
             style="fill:#21405d;fill-opacity:1;fill-rule:nonzero;stroke:none"
             d="m 0,0 c 0.244,-0.001 0.478,0.003 0.7,0.013 0.222,0.01 0.4,0.028 0.533,0.049 L 1.24,1.946 C 1.142,1.968 0.991,1.99 0.792,2.014 0.591,2.037 0.408,2.048 0.241,2.049 0.008,2.05 -0.212,2.037 -0.417,2.011 -0.624,1.983 -0.804,1.931 -0.96,1.854 -1.115,1.777 -1.239,1.672 -1.328,1.538 -1.418,1.405 -1.462,1.239 -1.463,1.039 -1.464,0.65 -1.335,0.379 -1.075,0.229 -0.814,0.078 -0.456,0.001 0,0 M -0.172,7.27 C 0.561,7.267 1.172,7.18 1.66,7.011 2.149,6.843 2.539,6.603 2.833,6.291 3.126,5.978 3.333,5.6 3.453,5.154 3.574,4.708 3.634,4.215 3.632,3.67 L 3.612,-1.498 C 3.255,-1.574 2.761,-1.665 2.127,-1.767 1.493,-1.87 0.727,-1.92 -0.174,-1.917 c -0.568,0.002 -1.081,0.055 -1.541,0.156 -0.462,0.102 -0.858,0.267 -1.191,0.497 -0.332,0.229 -0.586,0.527 -0.762,0.894 -0.177,0.368 -0.265,0.818 -0.263,1.352 0.002,0.51 0.107,0.944 0.313,1.299 0.208,0.354 0.484,0.636 0.829,0.847 0.345,0.209 0.74,0.361 1.185,0.454 0.446,0.092 0.907,0.138 1.385,0.136 C 0.104,3.717 0.39,3.702 0.639,3.672 0.889,3.645 1.092,3.607 1.247,3.563 L 1.248,3.796 C 1.249,4.218 1.123,4.558 0.869,4.814 0.613,5.071 0.17,5.201 -0.463,5.203 -0.887,5.205 -1.303,5.175 -1.714,5.115 -2.126,5.056 -2.453,4.875 -2.728,5.038 c -0.436,0.257 -0.364,1.825 -0.364,1.825 0.146,0.044 0.326,0.091 0.544,0.14 0.215,0.049 0.452,0.092 0.708,0.13 0.256,0.039 0.526,0.07 0.809,0.097 0.284,0.027 0.569,0.041 0.859,0.04" /></g></g></g></g></svg>